<?xml version="1.0" standalone="no"?>
<!DOCTYPE svg PUBLIC "-//W3C//DTD SVG 20010904//EN"
 "http://www.w3.org/TR/2001/REC-SVG-20010904/DTD/svg10.dtd">
<svg version="1.0" xmlns="http://www.w3.org/2000/svg"
 width="263.000000pt" height="263.000000pt" viewBox="0 0 263.000000 263.000000"
 preserveAspectRatio="xMidYMid meet">
<metadata>
Created by potrace 1.14, written by Peter Selinger 2001-2017
</metadata>
<g transform="translate(0.000000,263.000000) scale(0.100000,-0.100000)"
fill="#000000" stroke="none">
<path d="M1293 2620 c-28 -6 -346 -184 -521 -291 -35 -22 -65 -39 -67 -39 -2
0 -65 -36 -141 -80 -75 -44 -138 -80 -140 -80 -2 0 -35 -20 -74 -45 -70 -45
-85 -70 -57 -93 6 -6 66 -35 132 -65 66 -30 165 -76 219 -101 54 -25 99 -46
101 -46 2 0 57 -25 122 -56 65 -31 152 -71 193 -89 41 -18 120 -54 175 -79 55
-25 112 -46 127 -46 32 0 100 35 463 237 149 82 297 164 330 182 110 60 143
82 149 97 12 30 -31 59 -393 265 -26 14 -102 59 -171 99 -69 40 -141 82 -160
93 -19 10 -72 41 -116 67 -123 73 -135 78 -171 70z"/>
<path d="M124 1768 c-9 -29 -10 -904 -1 -941 10 -38 41 -35 124 12 37 21 219
123 403 226 184 103 341 192 348 198 7 6 12 22 10 35 -3 22 -47 51 -328 209
-179 101 -332 187 -340 190 -8 4 -48 26 -90 50 -85 49 -115 54 -126 21z"/>
<path d="M2346 1713 c-59 -38 -120 -75 -135 -84 -14 -9 -69 -44 -121 -77 -52
-34 -115 -74 -140 -88 -25 -15 -89 -56 -142 -91 -54 -35 -100 -63 -102 -63 -2
0 -39 -24 -83 -52 -103 -70 -111 -86 -118 -257 -3 -74 -7 -173 -10 -220 -7
-125 -15 -299 -20 -431 -3 -63 -7 -160 -10 -215 -2 -55 -1 -106 3 -112 19 -31
63 -12 297 124 132 77 345 200 473 274 178 102 237 141 249 164 17 31 16 -7
14 797 -1 319 -3 369 -17 382 -8 9 -19 16 -23 16 -3 0 -55 -30 -115 -67z"/>
<path d="M964 879 c-87 -54 -168 -103 -179 -109 -11 -5 -121 -71 -245 -147
-210 -129 -225 -140 -225 -167 0 -32 -1 -31 285 -183 58 -31 143 -77 190 -103
73 -40 123 -67 290 -157 30 -15 76 -17 85 -3 8 13 10 935 1 948 -17 28 -50 15
-202 -79z"/>
</g>
</svg>
